<svg version="1.1" id="Layer_1" xmlns="http://www.w3.org/2000/svg" x="0" y="0" viewBox="0 0 94.2 88.6" xml:space="preserve"><style>.st0{fill:#826550}</style><path class="st0" d="M87.2 22.4c-.6 1.7-1.1 3.5-1.7 5.2 3 5.8 4.7 12.4 4.7 19.4 0 14.2-7 26.9-17.6 34.7 1.2.7 2.2 1.6 3.1 2.7C86.9 75.8 94.2 62.2 94.2 47c0-9-2.6-17.4-7-24.6zM9.5 70.3h1.3C6.5 63.6 4 55.7 4 47.1 4 23.3 23.3 4 47.1 4 53.9 4 60.3 5.6 66 8.4c.7-1.2 1.5-2.3 2.4-3.3C62 1.9 54.8 0 47.1 0 21.1 0 0 21.1 0 47.1c0 8.5 2.3 16.5 6.2 23.4 1.2-.1 2.3-.2 3.3-.2z"/><path class="st0" d="M53.5 82c.4-6.1-.9-14 .7-19.1 4.5-.1 9.6.4 13.2-.7 8.2-14.8 12-34 18.4-50.6V9c-.8-3-3.9-3.7-6.7-4.6h-.7C67.8 7.9 66.5 20.5 64 32.1c-15.8-4.2-32.3-.1-32.9 15.1-4.5.1-8 1.2-9.9 3.9-.6 6.7 1.6 10.7 6.6 11.8-1.2 5.3-3.6 9.5-7.2 12.5-6.4.6-15.6-1.6-19.1 2V80c3.2 3.9 12.9 1.2 19.1 2 6.6-3.9 8.5-12.6 11.8-19.7 4.7.4 10.9-.8 14.5.7v19.7c-7.8.5-15.4 1.2-19.1 5.9h44.7c-3.2-5.3-12.4-4.6-19-6.6zM37.7 47.2c.7-11.7 15.4-11.7 25.6-8.5.1 4.7-.5 10.2 1.3 13.2-7-1-17-4.5-26.9-4.7z"/></svg>