<svg version="1.1" id="Layer_1" xmlns="http://www.w3.org/2000/svg" x="0" y="0" viewBox="0 0 94.9 94.2" xml:space="preserve"><style>.st0{fill:#826550}</style><path class="st0" d="M90.3 28.4c-2.1-4.8-5-9.3-8.5-13.1-.6 1.3-1.3 2.5-2 3.8 2.6 3 4.7 6.4 6.4 10 1.4-.3 2.7-.5 4.1-.7zM90 43.6c.1 1.2.2 2.3.2 3.5 0 23.8-19.3 43.1-43.1 43.1-.8 0-1.6 0-2.3-.1.1.6.2 1.2.2 1.8 0 .8-.2 1.5-.4 2.2.8 0 1.7.1 2.5.1 26 0 47.1-21.1 47.1-47.1 0-2.1-.2-4.1-.4-6.2-1.2 1-2.5 1.9-3.8 2.7zM4 47.1C4 23.3 23.3 4 47.1 4 55 4 62.3 6.1 68.7 9.8c1.1-.9 2.2-1.7 3.4-2.6C64.8 2.6 56.2 0 47.1 0 21.1 0 0 21.1 0 47.1c0 19.8 12.3 36.8 29.7 43.7-.4-1.5-.6-3.1-.6-4.6C14.3 79.4 4 64.5 4 47.1z"/><path class="st0" d="M38.8 84.9c7.7-2.7 16.3-9.7 14.5-19.8-.9-5.1-4.5-5-7.3-9.3 14.4-12 24.2-28.7 33-46.3h-2c-7.4 5.7-21.9 17-28.4 26.4-2.6 3.8-4.6 9.3-7.3 13.9-4.5 7.7-15.1 21.2-6.6 31.1-1.4 4.6-1.2 12.4 4 12.6 3.3-1.7-1.3-4.6.1-8.6zm8.3-38.8c1.4 0 2.6 1.2 2.6 2.6 0 1.4-1.2 2.6-2.6 2.6-1.4 0-2.6-1.2-2.6-2.6 0-1.5 1.2-2.6 2.6-2.6zM36.8 75c-1.9-9 7-17 11.9-9.3.2 7.5-6.2 15.8-11.9 9.3z"/><path class="st0" d="M56 51.2c14-5.2 30.6-7.8 39-18.5-9.4 1.4-18.1 3.5-27.8 4.6-2.1 6.3-7 9.7-11.2 13.9zM12.3 40c-4.2 12.2 8.4 16 21.8 13.9 3.8-4.8 5.8-10 2-15.9-4.9-7.5-20.9-6.4-23.8 2zm5.3 7.2c-5.1-10.8 12.9-11 14.6-5.2 2.1 7.6-9.1 8-14.6 5.2z"/></svg>