<svg xmlns="http://www.w3.org/2000/svg" viewBox="0 0 57.7 68.6"><path d="M51.6 22.2c.1-1.7.5-3.5.7-5.4.7-5.4 1.6-11.7-.1-16.8H52c-1.3 3.7-1.3 8.3-2.2 12.4-.7 3-1.8 5.7-3.2 7.6-.5.7-1.1 1.5-1.9 1.8-.7-3.9-4.3-4.9-7.7-6.4-2.1-.9-4-2-6.1-2.2-.8-.1-1.5.2-2 .2s-1.2-.3-2-.2c-2.1.1-4 1.3-6.1 2.2-3.4 1.4-7 2.4-7.7 6.4-.9-.3-1.4-1.1-1.9-1.8-1.5-1.9-2.6-4.6-3.2-7.6C7 8.3 7 3.7 5.7 0h-.2c-1.7 5.1-.8 11.4-.1 16.8.2 1.9.6 3.7.7 5.4.8 11.1-7 23.1-6 28.9.9 7.5 8.4 9.4 14.2 12.4 4.3 2.2 8.3 5 13.3 5.2h2.6c5-.2 9-2.9 13.3-5.2 5.8-3 13.2-4.8 14.2-12.4.9-5.8-6.9-17.8-6.1-28.9zm-22.8 3.7c-2.5 0-5.1-.1-7.2-.5.7-2.1 4-1.6 7.1-1.6h.2c3 0 6.4-.5 7.1 1.6-2.1.5-4.6.6-7.2.5z" fill="#826550"/></svg>