<svg fill="none" xmlns="http://www.w3.org/2000/svg" viewBox="0 0 403 396"><path d="M204.7 60.7V2.3c0-1.7-1.1-2.9-2.8-2.9-1.8 0-2.9 1.2-2.9 2.9v58.4h5.7zm-74.3 19.9c1.7-.8 3.2-2 4.9-2.8l-29-50.5c-.9-1.4-2.6-1.7-4-1-1.4.8-1.7 2.5-1.2 3.9l29.3 50.4zm-100.1 18c-.9 1.4-.3 3.1 1.1 4l50.1 29c.9-1.7 2-3.4 2.9-4.8L34 97.4c-1.1-.8-3.1-.3-3.7 1.2zM303.1 24c-1.4-1-3-.4-4 1l-30.7 52.8c1.7.8 3.4 2 4.9 2.8l30.7-53c.8-1.4.6-3.1-.9-3.7zm72.3 77.1c1.4-.8 1.7-2.5 1.1-4-.8-1.4-2.5-1.7-4-1l-52.9 30.7c.9 1.7 2 3.1 2.9 4.8l52.9-30.5zm-311 97.2v-2.9H3.3c-1.7 0-2.9 1.2-2.9 2.9s1.2 2.8 2.9 2.8h61.1v-2.8zm336-2.9h-61.1v5.7h61.1c1.7 0 2.9-1.1 2.9-2.8 0-1.4-1.2-2.9-2.9-2.9zm-27.8 98.9l-50.4-29.4c-.9 1.8-2 3.5-2.8 4.9l50.3 29.3c.6.3.9.3 1.4.3.9 0 2-.5 2.6-1.4.6-1.1 0-2.9-1.1-3.7zm-344 1.1c-1.4.9-1.7 2.6-1.1 4a3 3 0 002.5 1.4c.6 0 .9 0 1.4-.2l53-30.8c-.9-1.7-2-3.1-2.9-4.9l-53 30.5zM273.3 316c-1.7.8-3.2 2-4.9 2.8l29 50.4a3 3 0 002.6 1.4c.6 0 .9 0 1.4-.2 1.5-.9 1.7-2.6 1.2-4l-29.3-50.5zM99.7 369c-.8 1.4-.3 3 1.2 4 .5.2.8.2 1.4.2.8 0 2-.6 2.5-1.4l30.8-53-4.9-2.9-31 53zm99.3-33.1v58.4c0 1.7 1.1 2.8 2.9 2.8 1.7 0 2.8-1.1 2.8-2.8v-58.4H199zm99.3-188.6c2-1.2 2.8-3.7 1.4-5.7-1.1-2-3.7-2.9-5.7-1.4l-80.8 46.7a15.9 15.9 0 00-11.3-4.6 17 17 0 00-11.4 4.6l-57.8-34c-2-1-4.5-.5-6 1.5-1 2-.5 4.6 1.5 6l57.7 33.6a16.2 16.2 0 1031.3 0l81.1-46.7zm-83.6 41.3s0-.3 0 0c0-.3 0 0 0 0zm1 1.7s0-.3 0 0c0-.3 0 0 0 0zM188 190s0 .3 0 0c0 .3 0 0 0 0zm1.4-1.7c-.2 0-.2 0 0 0-.2 0-.2 0 0 0zM202 206a7.7 7.7 0 01-7.7-7.7c0-4.3 3.4-7.7 7.7-7.7 4.2 0 7.6 3.4 7.6 7.7 0 4.3-3.4 7.7-7.6 7.7z" fill="#fff"/></svg>