<svg version="1.1" id="Layer_1" xmlns="http://www.w3.org/2000/svg" x="0" y="0" viewBox="0 0 225.8 30" xml:space="preserve"><style>.st0{fill:#fff}.st1{fill:#636466}</style><path transform="rotate(-44.996 3.493 13.172)" class="st0" d="M1 10.7h4.9v4.9H1z"/><path transform="rotate(-45.001 218.616 13.186)" class="st0" d="M216.1 10.7h4.9v4.9h-4.9z"/><path class="st1" d="M28.6 13.3h1.3V8.2h2V6.9h-3.3zm9.1.9V6.5c0-1.1-.7-2-1.6-2.5.2.4.3.8.3 1.2V13c0 .9-.4 1.6-1 2.1.6.6 1 1.3 1 2.3V26c0 1.5-1.3 2.8-2.8 2.8h-8.3V30h9.6c1.5 0 2.8-1.3 2.8-2.8v-8.6c0-1-.5-1.7-1-2.3.6-.4 1-1.2 1-2.1z"/><path class="st1" d="M28.6 24.2h1.3v-5.1h2v-1.3h-3.3zm20.2 0h1.3v-16h2V6.9h-3.3z"/><path class="st1" d="M56.3 4c.2.4.3.8.3 1.2V26c0 1.5-1.3 2.8-2.8 2.8H47c-.4 0-.8-.1-1.2-.3.5.9 1.4 1.6 2.5 1.6h6.8c1.5 0 2.8-1.3 2.8-2.8V6.5c0-1.1-.7-2.1-1.6-2.5zM69 13.3h1.2V8.2h2V6.9H69zm7.4 5.5c1-.5 1.6-1.4 1.6-2.5V6.5c0-1.1-.6-2.1-1.6-2.5.2.4.3.8.3 1.2v9.9c0 1.1-.6 2-1.6 2.5L77 28.8h-3.5l.2 1.3h4.5l-1.8-11.3zm-5.7-1H69v11h-3.3V30h4.5V19.1h.7zm17.8 6.4h1.3v-16h2V6.9h-3.3z"/><path class="st1" d="M96.1 4c.2.4.3.8.3 1.2V26c0 1.5-1.3 2.8-2.8 2.8h-6.8c-.4 0-.8-.1-1.2-.3.4.9 1.4 1.5 2.5 1.5h6.8c1.5 0 2.8-1.3 2.8-2.8V6.5c-.1-1.1-.7-2.1-1.6-2.5zm12.6 20.2h1.3v-16h2V6.9h-3.3z"/><path class="st1" d="M116.2 4c.2.4.3.8.3 1.2V26c0 1.5-1.3 2.8-2.8 2.8h-8.3V30h9.6c1.5 0 2.8-1.3 2.8-2.8V6.5c0-1.1-.6-2.1-1.6-2.5zm12.9-.3v25.1h-3.2V30h4.5V3.7zm20.1 0v25.1h-3.6l.4 1.2h4.5V3.7zm-7.8 13.5v11.6h-3.3V30h4.5v-8.3zm19.7 1.9h3.7v-1.3h-5c-.4 0-.9-.1-1.2-.3.5.9 1.4 1.6 2.5 1.6zm1.7 1.7l-1.2.3v3.1h1.2zM169.1 4c.2.4.3.8.3 1.2v5.3l-3.3.8v1.6l4.6-1.1V6.5c0-1.1-.7-2.1-1.6-2.5z"/><path class="st1" d="M169.1 14.9c.2.4.3.8.3 1.2V26c0 1.5-1.3 2.8-2.8 2.8h-6.8c-.4 0-.8-.1-1.2-.3.5.9 1.4 1.6 2.5 1.6h6.8c1.5 0 2.8-1.3 2.8-2.8v-9.9c0-1.1-.7-2.1-1.6-2.5zm-7.5-8v6.4h1.2V8.2h2V6.9zm20.5 10.9h-.4v11h-3.2V30h4.5v-9.4zm9.3-14.1h-1.7l-3.8 11.9 4.2 13.2h-3.6l.3 1.1v.1h4.6l-4.2-13.2zm10.6 0v25.1h-3.2V30h4.5V3.7z"/><path transform="rotate(-45.009 223.435 17.979)" class="st1" d="M221 17.1h4.9v1.8H221z"/><path transform="rotate(-45.001 8.298 17.976)" class="st1" d="M5.8 17.1h4.9v1.8H5.8z"/><path class="st0" d="M34 10.5c0 .9-.4 1.6-1 2.1.6.6 1 1.3 1 2.3v8.6c0 1.5-1.3 2.8-2.8 2.8h-9.6V0h9.6C32.7 0 34 1.2 34 2.8v7.7zm-4.5-6h-3.3v6.4h3.3V4.5zm0 10.9h-3.3v6.4h3.3v-6.4zM51.4 0c1.5 0 2.8 1.2 2.8 2.8v20.8c0 1.5-1.3 2.8-2.8 2.8h-6.8c-1.5 0-2.8-1.3-2.8-2.8V2.8C41.8 1.3 43 0 44.6 0h6.8zm-1.8 4.5h-3.3v17.3h3.3V4.5zm20.5 21.8l-1.8-11h-1.7v11H62V0h9.6c1.5 0 2.7 1.2 2.7 2.8v9.9c0 1.1-.6 2-1.6 2.5l1.9 11.2h-4.5zm-.3-21.8h-3.3v6.4h3.3V4.5zM91.2 0C92.7 0 94 1.2 94 2.8v20.8c0 1.5-1.3 2.8-2.8 2.8h-6.8c-1.5 0-2.8-1.3-2.8-2.8V2.8c0-1.5 1.2-2.8 2.8-2.8h6.8zm-1.8 4.5h-3.3v17.3h3.3V4.5zM111.3 0c1.5 0 2.8 1.2 2.8 2.8v20.8c0 1.5-1.3 2.8-2.8 2.8h-9.6V0h9.6zm-1.7 4.5h-3.3v17.3h3.3V4.5zM122.2 0h4.5v26.3h-4.5V0zm24.6 0v26.3h-4.5L139 14.8v11.5h-4.5V0h4.5l3.3 10.8V0h4.5zm17.4 10.9c1.5 0 2.8 1.2 2.8 2.8v9.9c0 1.5-1.3 2.8-2.8 2.8h-6.8c-1.5 0-2.8-1.3-2.8-2.8v-5.4l4.5-1.1v4.7h3.3v-6.4h-5c-1.5 0-2.8-1.2-2.8-2.8V2.8c0-1.5 1.2-2.8 2.8-2.8h6.8c1.5 0 2.8 1.2 2.8 2.8v5.3l-4.6 1.1V4.5h-3.3v6.4h5.1zm19.3 2.2l4.2 13.2h-4.6v-.2l-3.4-10.8h-.4v11h-4.5V0h4.5v10.9h.3L183.1 0h4.6l-4.2 13.1zM195.1 0h4.5v26.3h-4.5V0z"/></svg>