<svg version="1.1" id="Layer_1" xmlns="http://www.w3.org/2000/svg" x="0" y="0" viewBox="0 0 369.48 153.05" xml:space="preserve"><style>.st0{fill:#fff}.st1{fill:#636466}</style><path class="st0" d="M119.86 11.43C127.04 9 127.59 0 120.51 0c-1.95 0-4.28 1.37-5.88 4.17l-9.58 16.56c-.44.79-.89 1.44-1.37 2.02-2.46-3.39-1.74-8.45 1.71-10.67l-1.44-1.81c-7.46 4.75-5.27 18.48 7.18 18.48 10.65-.01 15.57-12.77 8.73-17.32zM111.07 26c-2.12 0-3.8-.48-5.13-1.23.61-.72 1.23-1.61 1.78-2.53l5.99-10.37.96.1c8.34 1.75 5.02 14.03-3.6 14.03zm3.83-16.21l2.87-4.93c2.6-4.48 5.92-1.85 4.14 1.5-1.37 2.57-3.39 3.36-7.01 3.43z"/><path class="st0" d="M259.21 18.95l-.24.27c-1.99 2.33-4.35 4.24-6.5 5 .58-.92 1.03-1.92 1.47-2.67l3.93-6.74c3.32-5.65-2.05-7.53-5.68-4.28l.72-1.23h-3.56l-5.56 9.65s-.01 0-.01-.01l-.24.27c-1.61 1.75-3.59 2.6-5.37 2.63l3.35-5.78c2.16-3.73.17-7.25-3.18-7.25-2.74 0-4.86 1.09-6.91 4.65l-1.75 3.04-1.45 2.49-.19.22c-2.57 2.98-5.06 5.34-6.64 5.34-.79 0-1.23-.55-.41-1.95l5.13-9c1.54-2.7.07-4.65-1.92-4.65-1.54 0-3.18.85-4.96 2.7l5.68-9.89h-3.56L211.45 19l-.2.23c-1.3 1.54-2.87 2.91-4.28 3.87 1.13-3.39.89-8.59 3.08-13.14l-2.67-1.44c-1.47 2.02-4.69 6.67-7.9 10.44l-.24.27c-2.57 2.98-5.06 5.34-6.64 5.34-.79 0-1.23-.55-.41-1.95l3.56-6.23c1.23-2.16.65-3.42-.51-4.82l-1.98-2.39c-.51-.65-.51-1.37.2-2.05l-1.85-2.02c-2.02 1.81-2.19 3.83-.92 5.47l.31.41c-1.57 2.22-3.69 5.23-6.02 7.97l-.24.27c-2.57 2.98-5.85 5.34-8.35 5.34-2.19 0-3.49-1.37-1.85-4.24l.34-.62c2.29.96 6.6.51 9.27-4.11l.51-.89c1.92-3.28.07-5.75-2.84-5.75-2.87 0-5.16 1.51-6.67 4.11l-3.45 5.91-.21.24c-1.61 1.78-3.63 2.6-5.37 2.63l3.35-5.78c.89-1.57 1.33-2.94 1.33-4.07 0-1.81-1.23-3.18-3.22-3.18-.85 0-1.61.31-2.33.79l4.52-7.83h-3.63l-9.97 17.23-.19.21c-2.57 2.98-5.06 5.34-6.64 5.34-.79 0-1.23-.55-.41-1.95l3.56-6.23c1.23-2.16.65-3.42-.51-4.82L150 9.17c-.51-.65-.51-1.37.21-2.05l-1.85-2.02c-2.02 1.81-2.19 3.83-.92 5.47l.31.41c-1.57 2.22-3.7 5.23-6.02 7.97l-.24.27c-2.57 2.98-5.06 5.34-6.64 5.34-.79 0-1.23-.55-.41-1.95l5.75-10.06h-2.02c.14-1.51-1.4-3.59-3.73-3.59-1.92 0-4.58 1.51-6.09 4.11l-4.99 8.62c-1.51 2.64-.44 5.06 2.43 5.06 1.44 0 3.22-.92 4.93-2.33.17 1.37 1.27 2.33 3.08 2.33 2.94 0 6.33-3.15 9.27-6.57 1.71-1.98 3.04-3.76 5.88-7.63l.48.58c.44.58.62 1.3.21 2.02l-3.76 6.53c-1.5 2.64-.44 5.06 2.43 5.06 2.06 0 4.34-1.55 6.54-3.65v.02c0 2.43 1.81 3.8 4.11 3.8 1.98 0 4.28-1.03 6.06-3.32.27.03.51.03.79.03 1.32 0 3.12-.5 4.72-1.4-.19 2.57 1.68 4.52 4.82 4.52 4.04 0 8.04-3.15 10.98-6.57 1.71-1.98 3.04-3.76 5.88-7.63l.48.58c.44.58.62 1.3.21 2.02l-3.76 6.53c-1.51 2.64-.44 5.06 2.43 5.06 2.94 0 6.33-3.15 9.27-6.57 2.02-2.33 3.8-4.82 5.06-6.5-1.4 3.7-.65 10.33-4.04 10.33-1.2 0-1.68-1.3-1.68-1.3l-2.22 1.16s.65 2.87 3.9 2.87c.34 0 .65-.03.99-.07.04 0 .07-.03.1-.03 1.87-.25 3.73-1.14 5.47-2.36l-1.22 2.12h3.59l5.4-9.41c5.48-6.88 7.9-5.99 6.36-3.35l-4.62 8.04c-1.51 2.63-.44 5.06 2.43 5.06 2.07 0 4.35-1.56 6.55-3.67-.01 4.54 6.29 5.42 10.15.55h.79c1.07 0 2.46-.33 3.81-.94l-6.48 11.24h3.59l10.64-18.51c3.97-5.41 6.47-3.42 5.54-1.81l-5.37 9.31c-.58 1.03-1.92 1.33-2.57 0l-2.02.96s.65 2.87 3.9 2.87h.21c5.17-.1 8.55-3.18 11.46-6.57-.22-.51-.84-1.06-1.35-1.2zm-81.02-4.99c2.05-3.52 5.68-2.94 3.56.75l-.51.89c-1.71 2.91-4 2.84-5.34 2.36l2.29-4zm-45.6 5.61c-2.16 3.39-4.28 5-5.75 5-.79 0-1.23-.55-.41-1.95l4.96-8.66c1.92-3.32 5.71-2.46 3.97.75l-2.77 4.86zm26.79 4.86c-.79 0-1.44-.48-1.44-1.37 0-.51.21-1.09.62-1.85l1.27-2.19c.27 1.54.96 2.87 2.26 3.69-.73 1.17-1.82 1.72-2.71 1.72zm3.72-3.46c-.92-.68-1.51-1.78-1.51-3.22 0-2.53 2.46-6.67 4.48-6.67.79 0 1.34.58 1.34 1.54 0 .58-.21 1.3-.68 2.12l-3.63 6.23zm73.08-1.78h-.17c-1.16 0-2.09.96-2.09 2.12 0 .44.14.85.34 1.2l-.03.07c-1.68 2.87-5.75 2.33-3.63-1.37l2.7-4.69 1.71-2.91c2.5-4.24 5.92-2.57 3.76 1.13l-2.59 4.45z"/><path transform="rotate(-44.988 5.72 73.27)" class="st0" d="M1.68 69.23h8.08v8.08H1.68z"/><path transform="rotate(-44.992 357.734 73.259)" class="st0" d="M353.67 69.22h8.08v8.08h-8.08z"/><path class="st1" d="M46.8 73.48h2.08v-8.32h3.28v-2.09H46.8zm14.89 1.53V62.32c0-1.8-1.07-3.33-2.56-4.07.3.6.48 1.27.48 1.99v12.69c0 1.42-.62 2.65-1.66 3.51.92.98 1.66 2.09 1.66 3.69v14.1c0 2.46-2.09 4.56-4.56 4.56H41.49v2.08h15.64c2.46 0 4.56-2.09 4.56-4.56v-14.1c0-1.6-.74-2.71-1.66-3.69 1.05-.86 1.66-2.1 1.66-3.51z"/><path class="st1" d="M46.8 91.34h2.08v-8.38h3.28v-2.09H46.8zm33.01 0h2.08V65.16h3.28v-2.09h-5.36z"/><path class="st1" d="M92.14 58.25c.3.6.48 1.27.48 1.99v33.99c0 2.46-2.09 4.56-4.56 4.56H76.98c-.72 0-1.39-.18-1.99-.48.74 1.5 2.27 2.56 4.07 2.56h11.08c2.46 0 4.56-2.09 4.56-4.56V62.32c0-1.79-1.07-3.32-2.56-4.07zm20.68 15.23h2.08v-8.32h3.28v-2.09h-5.36zm12.25 9.04c1.6-.74 2.59-2.34 2.59-4.06V62.32c0-1.82-1.06-3.36-2.57-4.1.3.61.48 1.29.48 2.01v16.13c0 1.73-.99 3.33-2.59 4.06l3.08 18.35h-5.66l.35 2.08h7.39l-3.07-18.33zm-9.42-1.65h-2.83v17.92h-5.31v2.09h7.39V82.96h1.1zm29.2 10.47h2.08V65.16h3.28v-2.09h-5.36z"/><path class="st1" d="M157.18 58.25c.3.6.48 1.27.48 1.99v33.99c0 2.46-2.09 4.56-4.56 4.56h-11.09c-.72 0-1.38-.18-1.99-.48.74 1.5 2.27 2.56 4.07 2.56h11.09c2.46 0 4.56-2.09 4.56-4.56V62.32c0-1.79-1.07-3.32-2.56-4.07zm20.68 33.09h2.08V65.16h3.28v-2.09h-5.36z"/><path class="st1" d="M190.19 58.25c.3.6.48 1.27.48 1.99v33.99c0 2.46-2.09 4.56-4.56 4.56h-13.56v2.08h15.64c2.46 0 4.56-2.09 4.56-4.56V62.32c0-1.79-1.07-3.32-2.56-4.07zm21.05-.48v41.02h-5.31v2.09h7.39V57.77zm32.89 0v41.02h-5.91l.6 2.09h7.39V57.77zm-12.81 22.18v18.84h-5.31v2.09h7.39V87.19zm32.26 3.01h6.11v-2.08h-8.19c-.72 0-1.39-.18-2-.48.74 1.51 2.27 2.56 4.08 2.56zm2.83 2.77l-2.08.48v5.13h2.08zm10.25-27.48c.3.6.48 1.27.48 1.99v8.74l-5.37 1.24v2.56l7.45-1.73v-8.74c0-1.78-1.07-3.31-2.56-4.06z"/><path class="st1" d="M276.66 76.05c.3.6.48 1.27.48 1.99v16.2c0 2.46-2.09 4.56-4.56 4.56H261.5c-.72 0-1.38-.18-1.99-.48.74 1.5 2.27 2.56 4.07 2.56h11.08c2.46 0 4.56-2.09 4.56-4.56v-16.2c0-1.79-1.07-3.32-2.56-4.07zm-12.33-12.98v10.41h2.08v-8.32h3.28v-2.09zm33.69 17.8h-.68v17.92h-5.31v2.09h7.39V85.35zm15.14-23.1h-2.76l-6.23 19.41 6.9 21.61h-6l.57 1.84.06.25h7.46l-6.9-21.62zm17.37 0v41.02h-5.3v2.09h7.39V57.77z"/><path class="st0" d="M167.9 123.85h1.41c5.43.28 9.69 1.73 12.39 4.72 2.74-2.99 6.99-4.46 12.46-4.72h1.35c12.11.82 17.63 9.5 27.3 13.19 1.42.54 3.22 1.15 4.79.98 2.48-.27 4.06-2.78 3.74-5.58-.34-3.02-3.28-5.61-6.56-4.17-.48.21-.84.51-1.17.8-.25.23-.53.83-1.17.61-.6-.5.04-1.23.31-1.65 1.13-1.86 2.91-3.23 6.07-3.01 5.63.4 10.67 5.34 9.81 12.82-1.92 11.21-12.11 14.15-24.17 15.21h-3.93c-12.53-.74-21.43-5.11-28.77-11.04-7.46 5.85-16.29 10.33-28.9 11.04h-3.87c-12.16-1.07-22.44-4.02-24.23-15.46-.68-8.16 4.18-12.17 9.82-12.58 3.13-.22 5.02 1.15 6.14 3.01.28.46.8 1.17.31 1.72-.61.11-.91-.37-1.17-.61-.7-.66-1.49-1.18-2.82-1.23-3.86-.14-6.08 4.15-4.54 7.61.53 1.18 1.8 2.36 3.37 2.52 1.57.15 3.36-.46 4.79-.98 1.48-.54 2.75-1.25 3.87-1.9 7.36-4.34 13.11-10.39 23.37-11.3z" id="UUIVGv.tif"/><path transform="rotate(-45.009 365.536 81.13)" class="st1" d="M361.52 79.65h8.08v2.95h-8.08z"/><path transform="rotate(-45.001 13.574 81.136)" class="st1" d="M9.53 79.66h8.08v2.95H9.53z"/><path class="st0" d="M55.65 68.97c0 1.42-.62 2.65-1.66 3.51.92.98 1.66 2.09 1.66 3.69v14.1c0 2.46-2.09 4.56-4.56 4.56H35.45V51.72h15.64c2.46 0 4.56 2.03 4.56 4.56v12.69zm-7.45-9.86h-5.36v10.41h5.36V59.11zm0 17.8h-5.36v10.47h5.36V76.91zm35.9-25.19c2.46 0 4.56 2.03 4.56 4.56v33.99c0 2.46-2.09 4.56-4.56 4.56H73.02c-2.53 0-4.56-2.09-4.56-4.56V56.28c0-2.53 2.03-4.56 4.56-4.56H84.1zm-2.89 7.39h-5.36v28.27h5.36V59.11zm33.5 35.72l-3.02-17.92h-2.83v17.92h-7.39V51.72h15.64c2.46 0 4.5 2.03 4.5 4.56v16.13c0 1.73-.99 3.33-2.59 4.06l3.08 18.35h-7.39zm-.49-35.72h-5.36v10.41h5.36V59.11zm34.92-7.39c2.46 0 4.56 2.03 4.56 4.56v33.99c0 2.46-2.09 4.56-4.56 4.56h-11.09c-2.52 0-4.56-2.09-4.56-4.56V56.28c0-2.53 2.03-4.56 4.56-4.56h11.09zm-2.89 7.39h-5.36v28.27h5.36V59.11zm35.9-7.39c2.46 0 4.56 2.03 4.56 4.56v33.99c0 2.46-2.09 4.56-4.56 4.56h-15.64V51.72h15.64zm-2.89 7.39h-5.36v28.27h5.36V59.11zm20.63-7.39h7.39v43.11h-7.39V51.72zm40.28 0v43.11h-7.39l-5.42-18.84v18.84h-7.39V51.72h7.33l5.42 17.67V51.72h7.45zm28.45 17.8c2.46 0 4.56 2.03 4.56 4.56v16.2c0 2.46-2.09 4.56-4.56 4.56h-11.08c-2.52 0-4.56-2.09-4.56-4.56v-8.87l7.39-1.72v7.7h5.36V76.91h-8.19c-2.52 0-4.56-2.03-4.56-4.56V56.28c0-2.53 2.03-4.56 4.56-4.56h11.08c2.46 0 4.56 2.03 4.56 4.56v8.74l-7.45 1.73v-7.64h-5.36v10.41h8.25zm31.6 3.7l6.9 21.62h-7.45l-.06-.25-5.54-17.67h-.68v17.92H286V51.72h7.39v17.8h.56l5.67-17.8h7.51l-6.91 21.5zm18.97-21.5h7.39v43.11h-7.39V51.72z"/></svg>